HIERARCHY
ROOT RootJoint
{
    OFFSET   0.000000   0.000000   0.000000
    CHANNELS 6 Xposition Yposition Zposition Xrotation Yrotation Zrotation
    JOINT pelvis_lowerback
    {
        OFFSET   0.000000   0.093605   0.000000
        CHANNELS 3 Xrotation Yrotation Zrotation
        JOINT lowerback_torso
        {
            OFFSET   0.000000   0.100000   0.000000
            CHANNELS 3 Xrotation Yrotation Zrotation
            JOINT torso_head
            {
                OFFSET   0.000000   0.282350   0.000000
                CHANNELS 3 Xrotation Yrotation Zrotation
                End Site
                {
                    OFFSET   0.000000   0.192650   0.000000
                }
            }
            JOINT rTorso_Clavicle
            {
                OFFSET  -0.001000   0.157500   0.000000
                CHANNELS 3 Xrotation Yrotation Zrotation
                JOINT rShoulder
                {
                    OFFSET  -0.117647   0.000000   0.000000
                    CHANNELS 3 Xrotation Yrotation Zrotation
                    JOINT rElbow
                    {
                        OFFSET  -0.245000   0.000000   0.000000
                        CHANNELS 3 Xrotation Yrotation Zrotation
                        JOINT rWrist
                        {
                            OFFSET  -0.240000   0.000000   0.000000
                            CHANNELS 3 Xrotation Yrotation Zrotation
                            End Site
                            {
                                OFFSET  -0.116353  -0.002500   0.000000
                            }
                        }
                    }
                }
            }
            JOINT lTorso_Clavicle
            {
                OFFSET   0.001000   0.157500   0.000000
                CHANNELS 3 Xrotation Yrotation Zrotation
                JOINT lShoulder
                {
                    OFFSET   0.117647   0.000000   0.000000
                    CHANNELS 3 Xrotation Yrotation Zrotation
                    JOINT lElbow
                    {
                        OFFSET   0.245000   0.000000   0.000000
                        CHANNELS 3 Xrotation Yrotation Zrotation
                        JOINT lWrist
                        {
                            OFFSET   0.240000   0.000000   0.000000
                            CHANNELS 3 Xrotation Yrotation Zrotation
                            End Site
                            {
                                OFFSET   0.116353  -0.002500   0.000000
                            }
                        }
                    }
                }
            }
        }
    }
    JOINT rHip
    {
        OFFSET  -0.100000  -0.051395   0.000000
        CHANNELS 3 Xrotation Yrotation Zrotation
        JOINT rKnee
        {
            OFFSET   0.000000  -0.410000   0.000000
            CHANNELS 3 Xrotation Yrotation Zrotation
            JOINT rAnkle
            {
                OFFSET   0.000000  -0.390000   0.000000
                CHANNELS 3 Xrotation Yrotation Zrotation
                JOINT rToeJoint
                {
                    OFFSET   0.000000  -0.050000   0.130000
                    CHANNELS 3 Xrotation Yrotation Zrotation
                    End Site
                    {
                        OFFSET  -0.010000   0.002000   0.060000
                    }
                }
            }
        }
    }
    JOINT lHip
    {
        OFFSET   0.100000  -0.051395   0.000000
        CHANNELS 3 Xrotation Yrotation Zrotation
        JOINT lKnee
        {
            OFFSET   0.000000  -0.410000   0.000000
            CHANNELS 3 Xrotation Yrotation Zrotation
            JOINT lAnkle
            {
                OFFSET   0.000000  -0.390000   0.000000
                CHANNELS 3 Xrotation Yrotation Zrotation
                JOINT lToeJoint
                {
                    OFFSET   0.000000  -0.050000   0.130000
                    CHANNELS 3 Xrotation Yrotation Zrotation
                    End Site
                    {
                        OFFSET   0.010000   0.002000   0.060000
                    }
                }
            }
        }
    }
}
MOTION
Frames: 15
Frame Time:   0.008333
 -2.306952   0.914865   3.987884   5.981542  -6.138644  -2.477941   2.510368  -2.079226  -0.842335   2.011349  -3.590234   3.365718   5.791785  -0.057527  -0.280640   1.750940  -8.652688 -14.247232  19.987263   8.657645  38.154642  -0.819424  87.216614   0.821965  -1.707307   6.024504   5.705428  -0.174725  -0.505992  16.061858  11.662803 -22.525871 -24.341583 -179.834472 -79.438826 -179.805994  -1.738580  -9.865050  -7.550510 -30.214162  -9.909450 -12.204001  56.148658  -0.006305  -0.008895  -0.414352 -16.129011   6.335623  -1.720931   0.001160  -0.001723  -0.190079   6.252118  -4.859014   2.055983  -0.000006   0.000172  -9.461844  14.179637   7.235094  -0.845513  -0.000005   0.000003
 -2.307510   0.914987   3.989365   6.015090  -6.129643  -2.597115   2.632599  -2.238391  -0.747339   1.822624  -3.614499   3.350217   5.822784   0.069840  -0.304182   1.680447  -8.769717 -13.732364  19.268082   8.370691  38.339657  -0.848027  87.630041   0.852312  -1.745836   6.068796   5.459926  -0.386432  -0.536196  15.774614  10.468002 -22.640413 -24.575437 -179.865130 -79.387186 -179.842301  -1.743318  -9.863630  -7.350233 -30.568469  -9.708383 -12.006697  53.975621  -0.006130  -0.011828  -0.832973 -16.109832   6.225558  -1.746420   0.001067  -0.001506  -0.134762   6.442034  -4.689337   2.094028  -0.000022   0.000207  -9.576206  13.978157   7.088436  -0.827344   0.000006   0.000002
 -2.308110   0.915022   3.990823   6.071691  -6.156823  -2.664750   2.748675  -2.384275  -0.709327   1.623685  -3.633171   3.318332   5.836994   0.190635  -0.329782   1.614800  -8.853058 -13.159101  18.583589   8.132307  38.559255  -0.881890  88.002186   0.887562  -1.778940   6.032878   5.180493  -0.585731  -0.585414  15.448948   9.333584 -22.744221 -24.823866 -179.891713 -79.383188 -179.873488  -1.745029  -9.846052  -7.010464 -30.928867  -9.507670 -11.833534  51.697593  -0.005044  -0.013807  -1.233686 -16.087745   6.122875  -1.764827   0.000964  -0.001294  -0.096749   6.639106  -4.570432   2.125379  -0.000031   0.000216  -9.687860  13.804848   6.955954  -0.812211   0.000012   0.000002
 -2.308728   0.914981   3.992305   6.125598  -6.194582  -2.695455   2.869608  -2.523951  -0.701172   1.441178  -3.652069   3.273831   5.846227   0.302970  -0.358523   1.558453  -8.918378 -12.580456  17.943869   7.925920  38.785921  -0.933810  88.350347   0.940464  -1.812136   5.992851   4.936839  -0.766051  -0.642007  15.119124   8.271165 -22.845430 -25.071347 -179.913242 -79.384211 -179.898696  -1.744590  -9.807360  -6.652976 -31.298706  -9.314423 -11.688324  49.500225  -0.003442  -0.014776  -1.610600 -16.065888   6.027205  -1.782756   0.000881  -0.001115  -0.050692   6.829395  -4.491529   2.156846  -0.000038   0.000218  -9.801866  13.649140   6.838632  -0.800327   0.000014   0.000002
 -2.309368   0.914890   3.993840   6.172733  -6.230086  -2.705233   2.994882  -2.659437  -0.704403   1.280332  -3.673433   3.224580   5.854374   0.407442  -0.388164   1.510234  -8.974835 -12.018890  17.349121   7.739352  39.007312  -1.014895  88.675824   1.022146  -1.845340   5.957536   4.730758  -0.928345  -0.701110  14.795800   7.279354 -22.942874 -25.312875 -179.930510 -79.385400 -179.918899  -1.745132  -9.769209  -6.316990 -31.670162  -9.132059 -11.557312  47.428254  -0.001706  -0.015111  -1.963361 -16.044896   5.938099  -1.801217   0.000817  -0.000969   0.006666   7.007296  -4.435796   2.190399  -0.000044   0.000219  -9.919179  13.504150   6.734336  -0.791616   0.000013   0.000001
 -2.310033   0.914764   3.995446   6.214506  -6.257602  -2.702756   3.121999  -2.790980  -0.710500   1.139659  -3.697601   3.175419   5.862509   0.504702  -0.417059   1.468720  -9.027153 -11.484307  16.797270   7.565962  39.217927  -1.146368  88.979245   1.153890  -1.877753   5.922981   4.552252  -1.074952  -0.759669  14.484677   6.354436 -23.034659 -25.545538 -179.944334 -79.386041 -179.935064  -1.747199  -9.736791  -6.009532 -32.037665  -8.961520 -11.432183  45.489345  -0.000047  -0.015069  -2.293011 -16.024905   5.855098  -1.820504   0.000769  -0.000850   0.074116   7.170720  -4.393422   2.225457  -0.000050   0.000221 -10.039403  13.366227   6.641282  -0.785949   0.000012   0.000001
 -2.310730   0.914610   3.997131   6.253299  -6.274757  -2.692243   3.248487  -2.918195  -0.715875   1.016165  -3.724059   3.128680   5.870847   0.595308  -0.444436   1.432727  -9.077535 -10.980633  16.285530   7.402324  39.415506  -1.377511  89.261598   1.385047  -1.908897   5.885858   4.392754  -1.208225  -0.815835  14.188959   5.492151 -23.119533 -25.767548 -179.955399 -79.386174 -179.947998  -1.750512  -9.709756  -5.728635 -32.397509  -8.802741 -11.309197  43.680173   0.001434  -0.014796  -2.600892 -16.005931   5.777776  -1.840517   0.000732  -0.000754   0.149762   7.319196  -4.359283   2.260999  -0.000055   0.000221 -10.162012  13.233372   6.558158  -0.783185   0.000010   0.000001
 -2.311633   0.914597   3.998830   6.350092  -6.425235  -2.738252   3.252924  -3.002442  -0.699471   0.911553  -3.721801   3.080787   5.874408   0.696411  -0.473753   1.485276  -8.983027 -10.293007  15.575323   7.362503  39.644279  -0.853146  89.100160   0.858141  -1.870281   5.912657   4.165510  -1.266663  -0.951527  13.719678   4.586348 -23.171121 -26.069671 -179.989155 -79.977541 -179.981830  -1.713598  -9.980283  -5.408757 -32.668213  -8.769003 -11.030467  41.312589   0.005730  -0.012857  -2.689863 -15.902530   5.782372  -1.862264   0.000759  -0.000676   0.166494   7.546675  -4.240714   2.287480  -0.000061   0.000199 -10.296550  13.152767   6.421245  -0.771071   0.000013   0.000001
 -2.312620   0.914529   4.000531   6.451990  -6.620399  -2.753018   3.260695  -3.070952  -0.727551   0.801520  -3.701206   3.019182   5.858450   0.789587  -0.503930   1.527580  -8.832954  -9.570052  14.891148   7.365466  39.893354  -0.530742  88.925374   0.533577  -1.823826   5.806391   3.946319  -1.301237  -1.108028  13.222496   3.743686 -23.217085 -26.378142 179.981450 -80.586183 179.989352  -1.649992  -9.972546  -5.052951 -32.952611  -8.756236 -10.754126  38.968143   0.010046  -0.009826  -2.776808 -15.802567   5.788487  -1.869611   0.000667  -0.000563   0.183274   7.786286  -4.150950   2.312335  -0.000066   0.000172 -10.432785  13.104936   6.299754  -0.762687   0.000012   0.000001
 -2.313663   0.914410   4.002274   6.548948  -6.813775  -2.744456   3.278844  -3.133759  -0.778164   0.702348  -3.676167   2.946370   5.837606   0.875679  -0.535704   1.564771  -8.667872  -8.858804  14.245639   7.386912  40.145719  -0.340311  88.762921   0.341524  -1.780019   5.690215   3.764051  -1.322103  -1.267625  12.730045   2.959787 -23.265040 -26.682385 179.958467 -81.163090 179.967036  -1.582731  -9.887588  -4.719881 -33.243712  -8.749857 -10.493321  36.748691   0.013388  -0.006888  -2.859601 -15.708777   5.794409  -1.878697   0.000605  -0.000473   0.209173   8.015667  -4.084473   2.340111  -0.000072   0.000151 -10.570543  13.066535   6.192517  -0.758087   0.000011   0.000000
 -2.314756   0.914254   4.004080   6.641718  -6.988057  -2.722514   3.305660  -3.193579  -0.837534   0.617423  -3.652006   2.868407   5.816724   0.955636  -0.567606   1.598408  -8.502981  -8.178524  13.641186   7.413882  40.390983  -0.222474  88.612811   0.222518  -1.739715   5.585597   3.612073  -1.334419  -1.424235  12.254224   2.230228 -23.313106 -26.976980 179.941307 -81.702622 179.950416  -1.518466  -9.791186  -4.419531 -33.533561  -8.745819 -10.245312  34.670670   0.015649  -0.004510  -2.937517 -15.621175   5.799902  -1.889706   0.000568  -0.000403   0.243465   8.227115  -4.030993   2.370093  -0.000079   0.000135 -10.708597  13.028045   6.097030  -0.757017   0.000008   0.000000
 -2.315896   0.914071   4.005962   6.732994  -7.138042  -2.692785   3.338747  -3.250816  -0.899080   0.545614  -3.630055   2.789292   5.797172   1.030095  -0.598537   1.628988  -8.344490  -7.536997  13.076868   7.440336  40.624150  -0.146941  88.473401   0.146170  -1.702195   5.490213   3.480017  -1.341394  -1.574609  11.800784   1.551055 -23.358942 -27.258771 179.929014 -82.205815 179.938461  -1.458310  -9.699243  -4.148754 -33.818068  -8.742714 -10.007919  32.731528   0.016987  -0.002764  -3.010592 -15.539420   5.804926  -1.902319   0.000547  -0.000349   0.284202   8.418451  -3.984220   2.400357  -0.000085   0.000123 -10.846477  12.986242   6.009032  -0.758615   0.000007   0.000000
 -2.317084   0.913865   4.007927   6.825162  -7.262942  -2.658450   3.376047  -3.305249  -0.959684   0.484882  -3.610241   2.711346   5.779295   1.099523  -0.627942   1.656749  -8.194835  -6.936533  12.550640   7.463728  40.843171  -0.097423  88.343413   0.096108  -1.666853   5.400147   3.360423  -1.345121  -1.716979  11.372426   0.918636 -23.401012 -27.526049 179.920662 -82.674941 179.930236  -1.402024  -9.613954  -3.902344 -34.094667  -8.740108  -9.780016  30.924104   0.017603  -0.001579  -3.079042 -15.463135   5.809502  -1.916187   0.000533  -0.000308   0.329339   8.590078  -3.940628   2.429704  -0.000090   0.000115 -10.983249  12.939868   5.929880  -0.763301   0.000006   0.000000
 -2.318329   0.913740   4.009851   6.938361  -7.522424  -2.665653   3.344768  -3.330906  -0.978575   0.430845  -3.551980   2.633922   5.737807   1.135655  -0.659325   1.758846  -7.840344  -6.253607  11.941970   7.773400  40.887097  -0.047161  87.588719   0.042882  -1.576285   5.465400   3.141596  -1.293351  -1.993483  10.814586   0.390533 -23.397654 -27.831121 179.875620 -83.857225 179.890331  -1.350799  -9.918916  -3.561103 -34.356645  -8.848177  -9.413769  28.944337   0.020371   0.002229  -2.927543 -15.347958   5.819217  -1.958453   0.000746  -0.000277   0.315058   8.860923  -3.837046   2.531722  -0.000160   0.000118 -11.176933  12.930175   5.801145  -0.757110   0.000006   0.000000
 -2.319603   0.913563   4.011777   7.048961  -7.805508  -2.650180   3.328801  -3.341442  -1.012609   0.378170  -3.470800   2.548162   5.673789   1.165408  -0.686860   1.835501  -7.425519  -5.581247  11.349000   8.101845  40.932930  -0.032140  86.843695   0.025679  -1.473260   5.308580   2.971249  -1.213675  -2.289451  10.235487  -0.085140 -23.390927 -28.139871 179.828230 -85.032913 179.847860  -1.279264  -9.863008  -3.244144 -34.626666  -8.969886  -9.033423  27.051677   0.022740   0.005907  -2.787064 -15.239172   5.829139  -1.990370   0.000840  -0.000229   0.303010   9.134844  -3.756862   2.643263  -0.000225   0.000102 -11.376768  12.941565   5.689314  -0.754340   0.000005   0.000000
